<svg xmlns="http://www.w3.org/2000/svg" xmlns:xlink="http://www.w3.org/1999/xlink" version="1.1" style="" xml:space="preserve" width="110" height="28"><rect id="backgroundrect" width="100%" height="100%" x="0" y="0" fill="none" stroke="none"/>
<style type="text/css">
	.st0{fill:#FFFFFF;}
	.st1{fill:#C1D9FD;}
	.st2{fill:#FEB1C0;}
	.st3{fill:#293896;}
	.st4{fill:#FFF204;}
	.st5{fill:#F48DA1;}
	.st6{fill:#F72C44;}
</style>



<g class="currentLayer" style=""><title>Layer 1</title><path id="Check_Point_" class="st0" d="M42.4,7.6 c-0.1,0.7000000000000001 -0.4,1.3 -0.9,1.7000000000000002 c-0.4,0.4 -1,0.6000000000000001 -1.6,0.6000000000000001 c-0.8,0 -1.5,-0.30000000000000004 -2,-0.9 c-0.5,-0.8 -0.8,-1.7000000000000002 -0.7000000000000001,-2.6 c0,-0.9 0.2,-1.8 0.7000000000000001,-2.5 c0.5,-0.6000000000000001 1.2,-1 2,-0.9 C40.5,3 41.1,3.2 41.5,3.5 c0.4,0.30000000000000004 0.7000000000000001,0.8 0.8,1.3 h1.1 c-0.1,-0.8 -0.5,-1.5 -1.1,-2.1 c-0.7000000000000001,-0.5 -1.5,-0.8 -2.3,-0.7000000000000001 c-1.1,0 -2.1,0.4 -2.9,1.2 c-0.8,0.9 -1.1,2.1 -1.1,3.3 c-0.1,1.2 0.30000000000000004,2.3 1,3.3 c0.7000000000000001,0.8 1.7000000000000002,1.3 2.8,1.2 c0.9,0 1.8,-0.30000000000000004 2.5,-0.9 c0.7000000000000001,-0.7000000000000001 1.1,-1.5 1.2,-2.5 l0,0 L42.4,7.6 zM44.6,10.8 h1 V7.4 c0,-0.6000000000000001 0.1,-1.1 0.5,-1.6 c0.30000000000000004,-0.4 0.8,-0.6000000000000001 1.2,-0.6000000000000001 c0.30000000000000004,0 0.7000000000000001,0.1 0.9,0.30000000000000004 c0.2,0.30000000000000004 0.30000000000000004,0.7000000000000001 0.30000000000000004,1.1 v4 h1 l0,-4.3 c0,-0.6000000000000001 -0.2,-1.2 -0.5,-1.6 c-0.9,-0.8 -2.4,-0.7000000000000001 -3.2,0.2 c0,0 0,0 0,0 l-0.2,0.2 V2.2 h-1 L44.6,10.8 L44.6,10.8 L44.6,10.8 zM55,10.4 c0.5,-0.4 0.8,-1 0.9,-1.6 h-1 c-0.1,0.30000000000000004 -0.30000000000000004,0.7000000000000001 -0.5,0.9 c-0.30000000000000004,0.2 -0.7000000000000001,0.30000000000000004 -1,0.30000000000000004 c-0.5,0 -1,-0.2 -1.4,-0.6000000000000001 C51.7,9 51.6,8.5 51.5,8 l4.5,0 l0,-0.4 c0,-0.9 -0.2,-1.7000000000000002 -0.7000000000000001,-2.4 c-0.5,-0.6000000000000001 -1.2,-0.9 -1.9,-0.9 c-0.8,0 -1.6,0.30000000000000004 -2.1,0.9 c-0.6000000000000001,0.7000000000000001 -0.8,1.6 -0.8,2.5 c-0.1,0.8 0.2,1.7000000000000002 0.7000000000000001,2.3 c0.5,0.6000000000000001 1.3,0.9 2,0.8 l0,0 C53.9,11 54.5,10.8 55,10.4 L55,10.4 zM51.6,7.2 c0,-0.5 0.2,-0.9 0.5,-1.3 c0.30000000000000004,-0.4 0.8,-0.6000000000000001 1.3,-0.6000000000000001 c0.5,0 0.9,0.2 1.2,0.5 c0.30000000000000004,0.4 0.4,0.9 0.4,1.4 l0,0 L51.6,7.2 zM60.900000000000006,8.6 c-0.1,0.4 -0.2,0.8 -0.5,1.1 c-0.6000000000000001,0.6000000000000001 -1.6,0.5 -2.1,-0.1 c0,0 -0.1,-0.1 -0.1,-0.1 c-0.30000000000000004,-0.5 -0.4,-1.2 -0.4,-1.8 c0,-0.6000000000000001 0.1,-1.2 0.4,-1.8 c0.30000000000000004,-0.4 0.7000000000000001,-0.7000000000000001 1.2,-0.6000000000000001 c0.4,0 0.8,0.1 1,0.4 c0.30000000000000004,0.30000000000000004 0.4,0.6000000000000001 0.5,1 h1 c0,-0.6000000000000001 -0.2,-1.2 -0.7000000000000001,-1.7000000000000002 c-0.5,-0.4 -1.1,-0.6000000000000001 -1.8,-0.6000000000000001 c-0.8,0 -1.5,0.30000000000000004 -2,0.9 c-0.5,0.7000000000000001 -0.8,1.5 -0.8,2.4 c0,0.9 0.2,1.7000000000000002 0.7000000000000001,2.4 c0.5,0.6000000000000001 1.2,0.9 1.9,0.9 c0.6000000000000001,0 1.3,-0.2 1.7000000000000002,-0.6000000000000001 c0.5,-0.5 0.8,-1.1 0.8,-1.8 l0,0 L60.900000000000006,8.6 zM62.7,10.8 h1 V8.4 L64.5,7.6 l1.9,3.2 h1.3 l-2.5,-3.9 l2.3,-2.3 h-1.3 l-2.6,2.6 l0,-4.9 h-1 L62.7,10.8 L62.7,10.8 L62.7,10.8 zM70.5,10.8 h1.1 V7.2 c0.6000000000000001,0 1.5,0 2.5,0 c1.3,0.1 2.5,-0.8 2.6,-2.1 c0,-0.1 0,-0.30000000000000004 0,-0.4 c0,-0.6000000000000001 -0.2,-1.3 -0.7000000000000001,-1.7000000000000002 C75.5,2.5 74.8,2.2 74.2,2.3 h-3.1 H70.5 L70.5,10.8 L70.5,10.8 L70.5,10.8 zM71.6,3.3 h2.2 c0.5,0 0.9,0.1 1.3,0.30000000000000004 c0.30000000000000004,0.30000000000000004 0.4,0.7000000000000001 0.4,1.1 c0,0.4 -0.1,0.9 -0.4,1.2 c-0.4,0.30000000000000004 -0.8,0.4 -1.3,0.4 h-2.2 l0,0 L71.6,3.3 zM79.9,11 c0.8,0 1.5,-0.30000000000000004 2.1,-0.9 c1,-1.4 1,-3.3 0,-4.8 c-1,-1.1 -2.8,-1.2 -3.9,-0.2 c-0.1,0.1 -0.1,0.1 -0.2,0.2 c-1,1.4 -1,3.4 0,4.8 C78.4,10.7 79.1,11 79.9,11 L79.9,11 L79.9,11 zM79.9,10.1 c-0.5,0 -1,-0.2 -1.3,-0.6000000000000001 c-0.6000000000000001,-1.1 -0.6000000000000001,-2.4 0,-3.5 c0.5,-0.7000000000000001 1.5,-0.9 2.2,-0.30000000000000004 c0.1,0.1 0.2,0.2 0.30000000000000004,0.30000000000000004 c0.6000000000000001,1.1 0.6000000000000001,2.4 0,3.5 C80.9,9.9 80.4,10.1 79.9,10.1 L79.9,10.1 L79.9,10.1 zM83.6,10.8 h1 l0,-6.2 h-1 L83.6,10.8 L83.6,10.8 L83.6,10.8 zM83.6,3.5 h1 V2.3 h-1 L83.6,3.5 zM85.9,10.9 h1 V7.5 c0,-0.6000000000000001 0.1,-1.1 0.4,-1.6 c0.30000000000000004,-0.4 0.7000000000000001,-0.6000000000000001 1.2,-0.6000000000000001 c0.4,0 0.7000000000000001,0.1 1,0.4 c0.2,0.30000000000000004 0.30000000000000004,0.8 0.30000000000000004,1.2 v3.9 h1 l0,-4.3 c0,-0.6000000000000001 -0.2,-1.2 -0.5,-1.6 c-0.9,-0.8 -2.4,-0.7000000000000001 -3.2,0.2 c0,0 0,0 0,0 L86.9,5.5 V4.6 h-1 L85.9,10.9 L85.9,10.9 L85.9,10.9 zM94.4,10.1 h-0.4 c-0.2,0 -0.30000000000000004,0 -0.4,-0.1 C93.5,9.9 93.5,9.7 93.5,9.6 L93.5,5.5 h1 V4.6 h-1 V2.9 h-1 v1.7000000000000002 h-0.8 V5.5 H92.5 v4.1 c0,0.4 0.1,0.7000000000000001 0.30000000000000004,1 c0.30000000000000004,0.2 0.6000000000000001,0.30000000000000004 0.9,0.30000000000000004 c0.30000000000000004,0 0.5,0 0.8,-0.1 l0,0 L94.4,10.1 L94.4,10.1 zM95,4 h0.2 v-1 H95.5 V2.9 h-0.9 v0.2 h0.30000000000000004 L95,4 L95,4 L95,4 zM95.9,3.1 L95.9,3.1 l0.4,0.9 h0.1 l0.4,-1 l0,0 v1 h0.2 V2.9 h-0.30000000000000004 l-0.30000000000000004,0.9 l0,0 l-0.30000000000000004,-0.9 h-0.30000000000000004 v1.2 h0.2 L95.9,3.1 z"/><g id="cp_logo" class="">
	<path id="Shape_29_copy_4" class="st2" d="M0,2.3 v22.8 c0,1.6 1.3,2.9 2.9,2.9 c0,0 0,0 0,0 h23.3 c1.6,0 2.9,-1.3 2.9,-2.9 v0 V2.3 c0,-1.6 -1,-2.3 -2.6,-2.3 H3.2 C1.5999999999999996,0 0,0.7 0,2.3 z"/>
	<path id="Shape_3_copy_9" class="st3" d="M17.9,16.1 c-0.5,0.1 -1.5,0.2 -2,0.2 c-0.4,0 -0.9,0.1 -1.4,0.1 c-0.4,0 -0.9,0 -1.4,0 c-1,0 -1.9,-0.1 -2.8,-0.30000000000000004 c-0.5,-0.1 -0.9,-0.2 -1.4,-0.30000000000000004 c-0.30000000000000004,-0.1 -0.7000000000000001,-0.1 -1,-0.2 c0,-0.1 -0.1,-0.1 -0.1,-0.2 c-0.2,-0.4 -0.4,-0.9 -0.5,-1.3 c-0.2,-0.6000000000000001 -0.30000000000000004,-1.2 -0.4,-1.8 c0,-0.2 -0.1,-0.5 -0.2,-0.7000000000000001 c-0.1,-0.4 -0.1,-0.8 -0.1,-1.1 c0,-0.5 0,-1.6 0,-2 c0,-0.4 0.1,-0.9 0.2,-1.3 c0.1,-0.5 0.30000000000000004,-0.9 0.5,-1.3 c0.1,-0.4 0.30000000000000004,-0.7000000000000001 0.5,-1 c0.30000000000000004,-0.4 0.4,-0.5 0.5,-0.7000000000000001 c0,0 0.1,0 0.1,0 c0.30000000000000004,-0.1 0.7000000000000001,-0.1 0.9,-0.2 c0,0 0.2,0 0.30000000000000004,0 c0.1,0 0.6000000000000001,0 1.3,0 c0.4,0 0.8,0 1.4,0.1 c0.4,0 0.9,0 1.4,0 c0.5,0 0.9,0 1.4,0 c0.4,0 0.9,0 1.3,0 c0.4,0 0.9,0 1.3,0 c0.5,0 0.9,0 1.2,0 c0.4,0 0.8,0 1.2,-0.1 c0.30000000000000004,-0.1 0.7000000000000001,-0.1 1.1,-0.1 c0.1,0 0.1,0 0.2,0.1 c0.2,0.1 0.4,0.2 0.6000000000000001,0.4 c0,0.6000000000000001 0,1.3 0,1.9 c0,0.4 0.1,0.9 0.2,1.4 c0.1,0.5 0.1,0.8 0.2,1.3 s0.2,1.1 0.30000000000000004,1.4 c0.1,0.6000000000000001 0.1,0.30000000000000004 0.2,0.8 c0.1,0.5 0.1,1 0.1,1.4 c0,0.6000000000000001 0,1.3 -0.1,1.9 c0,0.30000000000000004 -0.2,0.7000000000000001 -0.4,0.9 c-0.4,0.1 -0.8,0.2 -1.2,0.2 c-0.5,0.1 -0.5,0 -0.8,0.1 c-0.5,0.1 -1,0.2 -1.6,0.2 c-0.5,0 -0.1,0.1 -0.7000000000000001,0.2 C18,16.1 18,16.1 17.9,16.1 M24.4,21.8 c-0.5,0.1 -1,0.2 -1.5,0.2 c-0.30000000000000004,0 -0.8,0 -1.4,0.1 c-0.4,0 -0.8,-0.1 -1.3,0 c-0.4,0 -0.8,0 -1.3,0 s-0.9,0.1 -1.4,0.1 c-0.4,0 -0.7000000000000001,0 -1.2,0 s-0.8,-0.1 -1.3,-0.1 c-0.4,0 -1.2,0 -1.6,0.1 S12.5,22.5 12.1,22.5 s-0.8,0 -1.2,0.1 c-0.4,0.1 -1,0.2 -1.4,0.30000000000000004 c-0.4,0.1 -0.9,0.1 -1.3,0.2 c-0.4,0.1 -0.8,0.1 -1.2,0.2 C6.699999999999999,23.3 6.4,23.5 6.1,23.5 c-0.5,0.2 -1,0.30000000000000004 -1.5,0.4 c-0.5,0.2 -1.1,0 -1.4,-0.4 c-0.2,-0.4 -0.30000000000000004,-0.8 -0.30000000000000004,-1.2 c0,-0.2 -0.1,-0.5 -0.1,-0.7000000000000001 c-0.2,-0.5 -0.2,-1.1 0.2,-1.5 c0.30000000000000004,-0.30000000000000004 0.6000000000000001,-0.5 1,-0.7000000000000001 c0.4,-0.30000000000000004 0.8,-0.5 1.3,-0.6000000000000001 C5.5,18.7 6,18.5 6.5,18.4 c0.4,-0.1 0.9,-0.2 1.3,-0.30000000000000004 c0.4,-0.1 0.9,-0.2 1.3,-0.30000000000000004 c0.4,-0.1 0.9,-0.2 1.4,-0.30000000000000004 c0.4,-0.1 0.9,-0.2 1.4,-0.2 c0.5,-0.1 0.9,-0.1 1.4,-0.2 c0.4,-0.1 0.9,-0.1 1.4,-0.2 c0.4,0 0.9,-0.1 1.3,-0.2 s1.1,0 1.5,0 c0.4,0 0.7000000000000001,-0.1 1.1,-0.1 s0.9,0 1.3,0 s0.9,0 1.4,0 c0.4,0 0.8,0 1.2,0 c0.6000000000000001,0 1.1,0 1.6,0.2 c0.4,0.2 0.6000000000000001,0.7000000000000001 0.5,1.1 c0,0.4 0,0.7000000000000001 0.1,1 c0.1,0.7000000000000001 0.1,1.4 0.2,2 C24.9,21.2 24.7,21.6 24.4,21.8 "/>
	<path id="Shape_3_copy_10" class="st0" d="M9.2,5 c0.1,-0.30000000000000004 0.4,-0.5 0.7000000000000001,-0.4 c0.30000000000000004,0 0.6000000000000001,0 0.9,0.1 c0.2,0 0.4,0 0.6000000000000001,0.1 c0.2,0 0.4,0.1 0.7000000000000001,0.1 c0.30000000000000004,0 1.2,0.2 1.5,0.30000000000000004 c0.30000000000000004,0 0.6000000000000001,0.2 1,0.2 c0.30000000000000004,0 0.6000000000000001,0.1 1,0.1 s0.6000000000000001,0 1,0 c0.30000000000000004,0 0.7000000000000001,-0.1 1,-0.1 c0.30000000000000004,0 0.6000000000000001,-0.1 0.9,-0.1 c0.30000000000000004,0 0.6000000000000001,-0.1 0.9,-0.1 c0.30000000000000004,-0.1 0.6000000000000001,-0.1 1,0 c0.30000000000000004,0 0.6000000000000001,0.2 0.7000000000000001,0.5 c0.1,0.30000000000000004 0.1,0.6000000000000001 0.1,0.9 c0,0.2 -0.1,0.5 -0.1,1 c0,0.30000000000000004 0,0.6000000000000001 0,0.9 c0,0.30000000000000004 0.1,0.6000000000000001 0.1,1 s0,0.6000000000000001 0,1 c0,0.30000000000000004 0,0.7000000000000001 0,1 c0,0.30000000000000004 0,0.7000000000000001 0,0.9 c0.1,0.30000000000000004 0.1,0.6000000000000001 0,0.9 c0.1,0.30000000000000004 0,0.7000000000000001 -0.30000000000000004,0.9 c-0.2,0.2 -0.5,0.30000000000000004 -0.8,0.4 c-0.1,0 -0.4,0.1 -0.9,0.2 c-0.30000000000000004,0.1 -0.5,0.1 -0.9,0.2 c-0.30000000000000004,0.1 -0.6000000000000001,0.1 -0.9,0.2 c-0.30000000000000004,0.1 -0.6000000000000001,0.1 -0.9,0.1 c-0.30000000000000004,0 -0.6000000000000001,0.1 -0.9,0.1 c-0.30000000000000004,0 -0.6000000000000001,0 -0.9,0 c-0.30000000000000004,0 -0.6000000000000001,0 -0.8,0.1 c-0.2,0 0,0.1 -0.1,0.1 c-0.30000000000000004,0.1 -0.6000000000000001,0.1 -0.9,0 c-0.30000000000000004,0 -0.5,0 -0.9,0 c-0.30000000000000004,0 -0.6000000000000001,0 -0.9,-0.1 s-0.6000000000000001,-0.1 -0.9,-0.2 c-0.30000000000000004,0 -0.6000000000000001,-0.1 -0.9,-0.2 c-0.30000000000000004,-0.1 -0.5,-0.2 -0.7000000000000001,-0.5 c-0.1,-0.30000000000000004 -0.1,-0.6000000000000001 -0.1,-0.9 c0,-0.30000000000000004 0,-0.6000000000000001 0,-0.9 c0,-0.30000000000000004 -0.1,-0.6000000000000001 0,-0.9 c0,-0.30000000000000004 0,-0.6000000000000001 0,-0.9 c0,-0.30000000000000004 0,-0.6000000000000001 0,-0.9 S8.5,9.4 8.5,9.1 s0.1,-0.6000000000000001 0.1,-0.9 s0,-0.6000000000000001 0.1,-0.9 c0,-0.30000000000000004 0.1,-0.6000000000000001 0.1,-0.8 c0,-0.30000000000000004 0,-0.6000000000000001 0.1,-0.9 C8.9,5.4 9,5.2 9.2,5 z"/>
	<path id="Shape_3_copy_11" class="st0" d="M6.4,20.6 c0.2,0 0.4,-0.2 0.4,-0.4 c0,0 0,0 0,0 c0,-0.2 -0.2,-0.5 -0.4,-0.5 c-0.2,0 -0.4,0.2 -0.4,0.5 c0,0 0,0 0,0 C6,20.4 6.1,20.6 6.4,20.6 C6.4,20.6 6.4,20.6 6.4,20.6 zM8.9,21.9 c0.2,0 0.4,-0.2 0.4,-0.4 c0,0 0,0 0,0 c0,-0.2 -0.2,-0.4 -0.4,-0.4 c0,0 0,0 0,0 c-0.2,0 -0.4,0.1 -0.4,0.4 c0,0 0,0 0,0 C8.5,22 8.8,21.9 8.9,21.9 L8.9,21.9 zM7.5,22.2 c0.2,0 0.4,-0.2 0.4,-0.4 c0,-0.2 -0.2,-0.4 -0.4,-0.4 c-0.2,0 -0.4,0.2 -0.4,0.4 c0,0 0,0 0,0 C7.1,22 7.199999999999999,22.2 7.5,22.2 L7.5,22.2 zM13,20.4 c0.2,0 0.4,-0.2 0.4,-0.4 c0,-0.2 -0.2,-0.4 -0.4,-0.4 c0,0 0,0 0,0 c-0.2,0 -0.5,0.1 -0.4,0.4 C12.7,20.2 12.8,20.4 13,20.4 L13,20.4 zM10.6,20.9 c0.2,0 0.4,-0.2 0.4,-0.4 v0 c0,-0.2 -0.2,-0.4 -0.4,-0.4 c0,0 0,0 0,0 c-0.2,0 -0.4,0.1 -0.4,0.30000000000000004 c0,0 0,0 0,0 C10.3,20.7 10.4,20.9 10.6,20.9 C10.6,20.9 10.6,20.9 10.6,20.9 L10.6,20.9 zM9.5,20.6 c0.2,0 0.4,-0.2 0.4,-0.4 c0,0 0,0 0,-0.1 c0,-0.2 -0.2,-0.4 -0.4,-0.4 c0,0 0,0 0,0 c-0.2,0 -0.4,0.2 -0.4,0.4 c0,0 0,0 0,0 C9.1,20.4 9.1,20.5 9.5,20.6 L9.5,20.6 zM12,19.1 c0.2,0 0.4,-0.1 0.4,-0.30000000000000004 c0,-0.2 -0.2,-0.4 -0.5,-0.4 c-0.2,0 -0.4,0.2 -0.4,0.4 C11.5,19 11.8,19.1 12,19.1 zM13.2,18.5 c0.2,0 0.4,-0.2 0.4,-0.4 c0,-0.2 -0.2,-0.4 -0.5,-0.4 c-0.2,0 -0.4,0.2 -0.4,0.4 C12.8,18.3 13,18.5 13.2,18.5 z"/>
	<path id="Shape_3_copy_12" class="st4" d="M6,22.2 c0.2,0 0.30000000000000004,-0.1 0.30000000000000004,-0.30000000000000004 c0,0 0,0 0,0 c0,-0.2 -0.1,-0.30000000000000004 -0.30000000000000004,-0.30000000000000004 c-0.2,0 -0.30000000000000004,0.2 -0.30000000000000004,0.30000000000000004 c0,0 0,0 0,0 C5.699999999999999,22.1 5.800000000000001,22.2 6,22.2 C6,22.2 6,22.2 6,22.2 zM9.7,18.9 c0.2,0 0.30000000000000004,-0.1 0.30000000000000004,-0.30000000000000004 c0,-0.2 -0.1,-0.30000000000000004 -0.30000000000000004,-0.30000000000000004 c-0.2,0 -0.30000000000000004,0.1 -0.30000000000000004,0.30000000000000004 c0,0 0,0 0,0 C9.4,18.7 9.5,18.9 9.7,18.9 C9.7,18.9 9.7,18.9 9.7,18.9 L9.7,18.9 zM8.2,20.3 c0.2,0 0.30000000000000004,0 0.30000000000000004,-0.2 c0,-0.2 -0.2,-0.30000000000000004 -0.30000000000000004,-0.30000000000000004 c-0.2,0 -0.30000000000000004,0.1 -0.30000000000000004,0.30000000000000004 C7.9,20.3 8.1,20.3 8.2,20.3 L8.2,20.3 zM12,21.1 c0.2,0 0.30000000000000004,-0.1 0.30000000000000004,-0.30000000000000004 c0,-0.2 -0.2,-0.30000000000000004 -0.30000000000000004,-0.30000000000000004 c-0.2,0 -0.30000000000000004,0.1 -0.30000000000000004,0.30000000000000004 c0,0 0,0 0,0 C11.7,20.9 11.8,21.1 12,21.1 zM18,21.2 c0.30000000000000004,0 0.6000000000000001,-0.30000000000000004 0.6000000000000001,-0.6000000000000001 c0,-0.30000000000000004 -0.30000000000000004,-0.6000000000000001 -0.6000000000000001,-0.6000000000000001 c-0.30000000000000004,0 -0.6000000000000001,0.30000000000000004 -0.5,0.6000000000000001 c0,0 0,0 0,0 C17.4,20.9 17.7,21.2 18,21.2 C18,21.2 18,21.2 18,21.2 L18,21.2 zM17.3,19.2 c0.30000000000000004,0 0.6000000000000001,-0.30000000000000004 0.6000000000000001,-0.6000000000000001 c0,-0.30000000000000004 -0.30000000000000004,-0.6000000000000001 -0.6000000000000001,-0.6000000000000001 c-0.30000000000000004,0 -0.6000000000000001,0.2 -0.6000000000000001,0.6000000000000001 c0,0 0,0 0,0 C16.7,18.9 17,19.2 17.3,19.2 L17.3,19.2 zM20.8,19.4 c0.30000000000000004,0 0.6000000000000001,-0.2 0.6000000000000001,-0.5 c0,0 0,0 0,0 c0,-0.30000000000000004 -0.2,-0.5 -0.5,-0.5 c0,0 0,0 0,0 c-0.30000000000000004,0 -0.5,0.2 -0.5,0.5 c0,0 0,0 0,0.1 C20.2,19.1 20.5,19.3 20.8,19.4 C20.8,19.4 20.8,19.4 20.8,19.4 L20.8,19.4 zM19.6,20.5 c0.30000000000000004,0 0.6000000000000001,-0.30000000000000004 0.6000000000000001,-0.6000000000000001 c0,-0.30000000000000004 -0.30000000000000004,-0.5 -0.6000000000000001,-0.5 c0,0 0,0 0,0 c-0.30000000000000004,0 -0.6000000000000001,0.2 -0.6000000000000001,0.5 C18.9,20.2 19.2,20.5 19.6,20.5 L19.6,20.5 z"/>
	<path id="Shape_4_copy_3" class="st3" d="M12.2,6.9 h-1 v1.1 h1.1 L12.2,6.9 L12.2,6.9 zM12.1,7 v0.8 h-0.8 V7 H12.1 zM19.2,6.1 h-1 v1.1 h1.1 L19.2,6.1 L19.2,6.1 L19.2,6.1 zM19.1,6.3 v0.8 h-0.8 V6.3 H19.1 zM20.5,10.3 h-1 v1.1 h1.1 L20.5,10.3 L20.5,10.3 L20.5,10.3 zM20.4,10.5 v0.8 h-0.8 V10.5 H20.4 L20.4,10.5 zM16.3,11.3 h-1 v1.1 h1.1 L16.3,11.3 L16.3,11.3 zM16.2,11.4 v0.8 H15.5 v-0.8 L16.2,11.4 L16.2,11.4 zM14.3,11 h-1 v1.1 h1.1 L14.3,11 L14.3,11 L14.3,11 zM14.2,11.2 v0.8 h-0.8 v-0.8 L14.2,11.2 L14.2,11.2 zM9.6,12 l-0.5,0.9 l1,0.5 l0.5,-1 L9.6,12 L9.6,12 zM9.7,12.1 l0.7000000000000001,0.30000000000000004 l-0.30000000000000004,0.7000000000000001 l-0.7000000000000001,-0.30000000000000004 C9.4,12.7 9.6,12.2 9.7,12.1 L9.7,12.1 zM18.6,7.1 v0.5 l-4.8,2.7 L10.5,11.4 l1.2,-2.7 L11.5,8.6 l-1.3,3 l3.7,-1.2 l4.9,-2.7 V7.1 L18.6,7.1 L18.6,7.1 zM18.6,7.699999999999999 l-3.5,1.1 l-3.3,-0.5 l0,0.2 l3.3,0.5 l3.5,-1.1 l1.3,1.5 l-1.8,0.30000000000000004 l0,0.2 l2,-0.4 L18.6,7.699999999999999 L18.6,7.699999999999999 zM15.100000000000001,9.4 l0.5,1.6 l2.4,-1.2 l-0.1,-0.1 l-2.2,1.1 l-0.5,-1.4 L15.100000000000001,9.4 zM14,10.6 l1.7000000000000002,0.1 l0,-0.2 l-1.7000000000000002,-0.1 L14,10.6 zM11.7,7.9 v0.5 l4,2.2 l0.1,-0.1 l-3.9,-2.2 V7.9 L11.7,7.9 L11.7,7.9 zM18,9.3 l0.2,0 l0.6000000000000001,-1.8 l-0.2,0 L18,9.3 zM20,10 l0,0.4 M10,12.2 l0.1,0.1 l0.2,-0.30000000000000004 l-0.1,-0.1 L10,12.2 zM13.7,11.1 h0.2 v-0.30000000000000004 h-0.2 L13.7,11.1 L13.7,11.1 zM15.7,11.1 v0.30000000000000004 h0.2 v-0.30000000000000004 L15.7,11.1 L15.7,11.1 zM19.9,10.1 v0.30000000000000004 h0.2 v-0.30000000000000004 H19.9 L19.9,10.1 z"/>
	<path id="Shape_3_copy_13" class="st4" d="M11.7,9 c0.2,0 0.4,-0.2 0.4,-0.4 s-0.2,-0.4 -0.4,-0.4 c-0.2,0 -0.4,0.2 -0.4,0.4 C11.3,8.8 11.5,9 11.7,9 C11.7,9 11.7,9 11.7,9 zM19.9,10.1 c0.2,0 0.4,-0.2 0.4,-0.4 s-0.2,-0.4 -0.4,-0.4 c-0.2,0 -0.4,0.2 -0.4,0.4 C19.5,9.9 19.7,10.1 19.9,10.1 L19.9,10.1 zM15.8,11.2 c0.2,0 0.4,-0.2 0.4,-0.4 s-0.2,-0.4 -0.4,-0.4 c-0.2,0 -0.4,0.2 -0.4,0.4 C15.399999999999999,11 15.600000000000001,11.2 15.8,11.2 C15.8,11.2 15.8,11.2 15.8,11.2 L15.8,11.2 z"/>
	<path id="Shape_3_copy_14" class="st5" d="M10.4,12.1 c0.2,0 0.4,-0.2 0.4,-0.4 c0,-0.2 -0.2,-0.4 -0.4,-0.4 c-0.2,0 -0.4,0.2 -0.4,0.4 C9.9,11.9 10.1,12.1 10.4,12.1 zM18.1,10.1 c0.2,0 0.4,-0.2 0.4,-0.4 c0,-0.2 -0.2,-0.4 -0.4,-0.4 c-0.2,0 -0.4,0.2 -0.4,0.4 C17.7,9.9 17.9,10.1 18.1,10.1 z"/>
	<path id="Shape_3_copy_15" class="st6" d="M18.7,8.3 c0.2,0 0.4,-0.2 0.4,-0.4 S18.9,7.5 18.7,7.5 c-0.2,0 -0.4,0.2 -0.4,0.4 C18.2,8.1 18.4,8.3 18.7,8.3 C18.7,8.3 18.7,8.3 18.7,8.3 zM13.8,10.9 c0.2,0 0.4,-0.2 0.4,-0.5 c0,-0.2 -0.2,-0.4 -0.5,-0.4 c-0.2,0 -0.4,0.2 -0.4,0.5 C13.399999999999999,10.7 13.600000000000001,10.9 13.8,10.9 zM15.2,9.5 c0.2,0 0.4,-0.2 0.4,-0.4 s-0.2,-0.4 -0.4,-0.4 c-0.2,0 -0.4,0.2 -0.4,0.4 C14.7,9.3 14.899999999999999,9.5 15.2,9.5 C15.2,9.5 15.2,9.5 15.2,9.5 L15.2,9.5 z"/>
</g></g></svg>